<?xml version="1.0" encoding="utf-8" ?><svg xmlns="http://www.w3.org/2000/svg" xmlns:xlink="http://www.w3.org/1999/xlink" width="1024" height="1024" viewBox="0 0 1024 1024"><path fill="#FD8115" d="M556.351 581.109C547.682 572.456 539.588 564.929 531.429 555.716C505.194 526.094 489.914 491.349 489.732 451.513C489.223 411.391 501.467 370.39 530.761 341.766C545.409 327.454 561.792 316.138 580.276 306.833C587.707 303.092 600.597 299.559 607.757 295.687C609.797 294.584 615.651 282.075 617.354 279.895C620.329 275.134 622.868 270.505 626.09 265.819C645.636 237.395 666.998 208.362 692.905 185.453C699.975 179.201 708.231 180.367 713.921 187.25C734.402 211.251 743.868 244.037 751.874 274.014C754.317 283.467 756.435 296.625 758.263 306.09C767.364 309.493 777.212 312.428 786.475 315.723C809.095 323.769 826.979 332.214 847 345.46C853.623 349.839 860.032 354.533 866.206 359.525C872.338 364.566 877.921 370.972 884.813 374.249C900.086 366.66 983.361 339.165 997.92 344.473C1000.83 345.533 1003.31 348.989 1004.44 351.744C1007.38 358.864 1006.06 369.188 1006.01 376.909C1005.94 411.14 1000.36 445.138 989.495 477.599C986.153 487.783 979.714 502.016 977.188 510.772C990.691 562.249 981.714 610.595 942.266 649.323C937.867 653.642 932.619 657.492 928.348 661.818C927.802 666.654 924.58 674.316 922.636 679.097C909.17 712.228 886.134 739.059 858.74 761.558C852.651 766.581 845.254 769.524 838.618 773.741C833.794 776.806 829.376 780.167 824.446 783.212C802.223 796.939 769.614 805.887 747.06 788.134C744.97 786.489 743.775 784.046 741.164 783.327C730.221 779.454 720.673 774.195 715.62 763.126C713.416 758.299 713.149 752.835 713.188 747.515C713.268 743.59 713.063 741.269 714.91 737.72C716.306 734.025 721.37 728.513 721.867 726.345L718.522 727.634C713.423 723.5 724.903 713.811 727.705 710.732C727.548 709.33 727.665 709.328 726.789 708.264C724.17 709.38 723.655 711.132 720.446 712.355C717.602 714.431 714.511 717.106 711.798 719.415C707.586 721.982 702.448 725.133 697.732 726.714C677.269 733.576 655.509 731.9 634.858 726.966C628.212 725.378 620.156 721.462 615.632 720.546C606.536 718.704 597.327 716.895 588.165 714.988C575.405 712.334 560.053 707.244 547.695 705.025C552.179 715.812 555.314 734.814 552.235 746.294C551.558 748.816 548.129 757.971 549.16 759.389C551.093 759.346 558.988 755.245 561.049 754.264C587.466 741.685 605.327 733.46 634.926 742.551C659.727 750.168 677.249 763.67 678.023 791.675C678.695 815.947 661.148 839.743 645.384 856.665C627.12 875.193 605.226 888.276 582.716 900.842C520.897 935.352 450.879 952.497 379.871 951.937C277.719 951.132 165.197 922.094 90.6957 848.498C35.9686 794.437 12.2326 729.366 12.0081 653.269C12.0677 548.76 53.7771 448.584 127.904 374.915C182.434 320.099 253.898 280.589 330.733 268.922C349.435 266.083 364.355 265.347 383.151 265.317C437.011 264.765 490.382 275.578 539.779 297.052C546.662 300.03 561.39 306.262 566.761 310.924C558.237 316.448 550.887 319.562 542.222 325.78C514.137 346.104 494.712 376.238 487.799 410.209C479.375 449.722 484.715 495.461 507.251 529.831C517.573 545.574 536.846 567.043 551.621 579.41C552.349 580.019 555.334 580.831 556.351 581.109ZM732.23 696.369L731.734 697.461C732.724 701.655 729.964 701.894 728.323 705.726C729.11 706.89 729.754 707.068 731.02 707.867C733.463 708.155 736.512 706.964 736.192 704.174C735.68 699.708 733.147 700.485 734.756 695.794L734.933 695.293L736.262 696.357C736.621 697.361 737.463 700.465 738.777 700.11C743.243 698.903 747.698 692.769 750.856 689.524C745.727 688.1 740.614 686.618 735.519 685.078C734.674 689.357 734.083 692.349 732.23 696.369ZM880.036 687.362L876.044 688.587C873.104 689.335 869.043 689.804 867.412 692.035L866.678 691.274C862.289 691.775 857.13 693.15 852.69 693.998L852.922 695.758C851.501 697.179 848.445 697.016 846.516 697.035C847.054 697.62 847.475 697.483 848.584 697.72C854.346 697.181 863.927 696.267 869.226 694.628C874.798 692.927 880.277 691.909 885.981 690.041C890.326 687.613 900.419 685.419 904.954 680.911C905.906 679.965 905.65 678.971 905.656 677.638L904.903 676.931C901.73 677.729 896.133 680.728 892.806 682.224C888.333 684.236 884.633 685.661 880.036 687.362ZM774.193 788.608C771.78 788.437 770.15 788.149 767.802 788.746L767.571 789.309C769.9 790.626 772.803 790.629 775.473 790.697L774.193 788.608ZM500.321 795.394C504.503 792.443 513.281 786.889 515.862 782.953L515.948 781.756C514.133 780.581 511.9 780.981 509.844 781.506C481.011 788.882 451.781 794.197 422.388 798.749C355.646 809.084 286.745 817.271 219.354 808.711C211.578 807.726 204.996 805.922 197.496 804.434C190.588 803.065 191.856 804.91 184.93 800.517C150.657 778.592 123.11 747.622 105.333 711.025C103.55 707.27 94.7695 683.998 94.0232 683.353C96.8045 717.559 126.48 758.549 152.443 779.959C245.593 856.771 400.676 863.254 500.321 795.394ZM676.98 297.53C691.758 298.283 705.766 300.125 720.334 302.848C722.144 303.187 726.657 303.844 728.304 303.399C729.066 301.189 728.811 298.879 728.533 296.578C725.304 269.782 720.871 242.096 710.382 217.083C708.694 213.056 706.673 210.56 702.851 208.501C700.513 208.481 697.857 208.376 695.555 208.59C677.852 216.924 646.47 273.654 639.585 292.896C638.867 294.902 638.388 296.105 638.452 298.28L639.056 299.279C641.701 299.391 644.298 299.134 646.922 298.828C656.926 297.665 666.904 297.252 676.98 297.53ZM961.283 461.512L965.597 469.28C966.731 466.718 967.546 465.003 968.285 462.264C971.464 454.266 973.939 444.912 976.244 436.623C977.067 434.324 977.698 431.422 978.299 429.016C980.078 422.781 981.444 416.372 982.88 410.044L984.194 402.997C985.293 398.256 986.079 392.865 986.688 388.041C988.273 382.517 989.475 371.082 983.105 368.313C975.936 368.718 924.759 388.892 919.922 393.259L911.454 397.19C914.034 399.525 916.599 401.878 919.146 404.25C931.1 419.207 944.161 432.009 953.525 449.131C954.579 451.058 960.062 460.326 961.283 461.512ZM451.151 696.642C461.42 694.043 471.802 691.479 482.33 690.129C486.283 689.612 490.257 689.275 494.241 689.12C499.019 688.919 499.661 689.79 503.959 687.261C487.432 684.031 461.841 688.718 445.392 693.152C438.155 695.103 431.215 697.272 424.289 700.117C423.214 700.559 422.715 700.488 421.674 700.19C421.566 697.871 426.969 692.373 428.702 690.202C432.818 684.951 436.554 679.412 439.88 673.628C468.336 623.856 451.179 568.177 410.344 531.45C376.494 501.006 323.09 478.214 277.115 482.792C264.604 484.099 251.075 486.31 239.668 491.927C244.467 491.929 250.572 490.945 255.467 490.319C311.987 483.097 365.016 495.675 406.684 535.393C455.823 582.234 465.647 647.801 417.085 698.98C412.774 703.523 407.64 707.459 403.184 711.852C419.777 706.263 434.367 701.652 451.151 696.642ZM675.968 482.037C685.464 485.587 703.79 485.298 713.875 483.343C716.727 482.815 720.82 481.94 723.405 480.805C728.192 479.417 734.387 477.737 737.123 473.175C739.057 469.951 738.161 466.063 734.336 464.758C729.641 463.156 726.234 465.086 722.035 466.993C711.789 470.462 699.663 472.791 688.839 471.28L680.655 469.632C651.107 462.493 631.535 438.404 624.934 409.531C624.054 404.951 624.175 400.736 622.386 396.349C620.412 391.018 616.12 390.758 612.101 394.386C607.656 398.4 611.113 407.829 612.025 412.757C617.52 442.445 644.93 476.313 675.968 482.037ZM878.682 560.114C875.315 560.841 871.758 561.312 868.661 561.989C863.073 562.331 859.086 562.487 853.502 562.234C840.339 560.792 831.777 557.369 820.799 550.121C819.261 548.577 816.416 546.443 814.618 544.82C809.402 540.109 806.194 536.202 802.095 530.577L800.304 527.794L796.361 520.323C793.313 512.995 792.262 506.909 789.457 499.802C789.043 498.753 787.872 497.858 786.797 497.435C785.209 496.815 783.438 496.871 781.892 497.589C773.632 501.41 780.698 516.68 783.299 522.421C784.297 524.964 784.99 526.524 786.197 528.977L787.705 531.781C788.808 534.029 789.245 535.01 790.687 537.008C791.848 538.767 793.113 540.79 794.373 542.449C797.736 547.066 806.2 556.45 811.163 559.068L813.102 560.609C815.686 562.421 818.294 564.373 821.084 565.827C823.259 566.986 825.525 568.293 827.812 569.164C830.885 570.812 834.976 572.004 838.353 573.114C850.926 575.91 861.046 576.911 873.931 574.702C878.377 574.077 883.398 572.479 887.754 571.19C890.438 570.426 892.426 569.498 894.958 568.389C896.521 567.791 896.814 567.613 898.204 566.8C898.527 566.663 898.848 566.52 899.166 566.371C905.375 563.437 908.166 556.343 900.307 553.104C897.477 551.939 894.422 553.816 891.896 555.212C890.251 555.898 888.599 556.565 886.939 557.211C885.073 557.908 881.625 559.445 879.826 559.33L878.682 560.114ZM720.214 652.199C718.402 652.577 718.42 652.481 716.99 653.798C716.066 657.872 721.9 659.032 724.12 663.052C725.915 663.757 726.02 663.196 727.455 662.228C725.151 658.463 723.078 655.53 720.214 652.199ZM659.659 534.555C658.12 533.742 656.828 532.808 655.149 532.839C651.745 535.159 651.798 539.859 651.996 543.572C652.659 555.987 661.702 566.06 674.133 567.475C682.998 568.484 693.721 568.486 701.992 564.733C703.681 564.076 704.863 563.504 706.676 563.282C707.565 564.528 707.27 566.309 707.306 568.116C703.962 600.9 756.986 616.072 767.384 586.983C767.066 584.951 767.475 585.823 766.096 584.28C761.069 582.555 759.98 587.98 756.751 590.718C745.327 600.404 724.713 594.227 717.48 581.868C715.123 577.844 714.384 574.369 713.891 570.14L714.23 563.35C714.759 561.944 715.108 557.321 715.134 555.854C721.668 548.341 726.621 543.263 737.246 546.38C742.794 548.007 753.744 545.235 750.684 537.585C747.757 530.268 736.637 523.054 729.639 519.709C727.409 518.365 724.459 517.147 722.047 516.055C720.007 515.049 719.114 514.784 716.913 514.101C709.514 511.421 704.473 511.082 702.114 519.842C705.289 530.16 712.679 530.58 713.076 543.562C711.53 550.164 708.856 553.048 703.022 556.748C690.912 562.683 668.647 564.564 661.19 550.435C658.453 545.25 659.097 540.128 659.659 534.555ZM618.7 604.605L620.169 603.29C617.711 602.338 616.005 601.39 613.417 601.586L612.775 602.126C613.991 603.827 616.653 604.14 618.7 604.605ZM596.667 675.567C597.318 676.465 597.156 678.073 597.201 679.346L597.701 679.607C599.708 678.066 601.221 676.39 599.94 673.816L597.865 673.53L596.667 675.567ZM555.975 584.285L556.016 585.749C566.936 589.471 578.162 592.797 589.179 596.233C594.217 597.804 601.338 601.21 606.469 599.714L606.566 599.127C602.35 596.571 563.072 586.098 555.975 584.285ZM511.275 688.597C513.096 691.102 522.239 693.326 525.094 692.53C522.281 690.003 514.973 688.283 511.275 688.597Z"/><defs><linearGradient id="gradient_0" gradientUnits="userSpaceOnUse" x1="741.17596" y1="688.66766" x2="738.005" y2="699.00153"><stop offset="0" stop-color="white" stop-opacity="0.81568629"/><stop offset="1" stop-color="white"/></linearGradient></defs><path fill="url(#gradient_0)" d="M735.519 685.078C740.614 686.618 745.727 688.1 750.856 689.524C747.698 692.769 743.243 698.903 738.777 700.11C737.463 700.465 736.621 697.361 736.262 696.357L734.933 695.293L732.23 696.369C734.083 692.349 734.674 689.357 735.519 685.078Z"/><path fill="#FDFBFA" fill-opacity="0.0078431377" d="M880.036 687.362C884.633 685.661 888.333 684.236 892.806 682.224C896.133 680.728 901.73 677.729 904.903 676.931L905.656 677.638C905.65 678.971 905.906 679.965 904.954 680.911C900.419 685.419 890.326 687.613 885.981 690.041C884.185 689.928 883.946 690.055 882.373 689.141L882.845 689.173C881.655 688.495 881.133 688.176 880.036 687.362Z"/><path fill="#FDFBFA" fill-opacity="0.98431373" d="M852.69 693.998C857.13 693.15 862.289 691.775 866.678 691.274L867.412 692.035L867.695 692.379L869.226 694.628C863.927 696.267 854.346 697.181 848.584 697.72C847.475 697.483 847.054 697.62 846.516 697.035C848.445 697.016 851.501 697.179 852.922 695.758L852.69 693.998Z"/><defs><linearGradient id="gradient_1" gradientUnits="userSpaceOnUse" x1="729.19263" y1="703.40991" x2="735.53894" y2="704.17871"><stop offset="0" stop-color="white" stop-opacity="0.86274511"/><stop offset="1" stop-color="white" stop-opacity="0.96470588"/></linearGradient></defs><path fill="url(#gradient_1)" d="M732.23 696.369L734.933 695.293L734.756 695.794C733.147 700.485 735.68 699.708 736.192 704.174C736.512 706.964 733.463 708.155 731.02 707.867C729.754 707.068 729.11 706.89 728.323 705.726C729.964 701.894 732.724 701.655 731.734 697.461L732.23 696.369Z"/><path fill="#FDFBFA" fill-opacity="0.15686275" d="M880.036 687.362C881.133 688.176 881.655 688.495 882.845 689.173L882.373 689.141C883.946 690.055 884.185 689.928 885.981 690.041C880.277 691.909 874.798 692.927 869.226 694.628L867.695 692.379C869.895 692.294 873.383 692.449 875.148 691.287C875.953 690.758 875.821 689.845 876.044 688.587L880.036 687.362Z"/><path fill="#FDFBFA" fill-opacity="0.054901961" d="M867.412 692.035C869.043 689.804 873.104 689.335 876.044 688.587C875.821 689.845 875.953 690.758 875.148 691.287C873.383 692.449 869.895 692.294 867.695 692.379L867.412 692.035Z"/><path fill="#E7E5E2" fill-opacity="0.29411766" d="M775.473 790.697C772.803 790.629 769.9 790.626 767.571 789.309L767.802 788.746C770.15 788.149 771.78 788.437 774.193 788.608L775.473 790.697Z"/><path fill="#E7E5E2" d="M750.856 689.524C779.516 695.748 789.282 697.57 819.241 697.674L819.194 699.097C820.318 701.813 819.972 702.368 822.622 703.659C827.337 705.956 828.372 707.608 830.36 712.247C833.526 713.314 837.789 714.767 838.981 718.074C841.451 724.927 849.037 721.775 852.49 728.767C854.253 732.336 852.171 735.152 856.542 736.445C859.374 737.158 860.826 737.908 862.299 740.33C863.497 742.301 862.545 751.647 861.51 753.353C857.843 759.399 842.453 766.783 837.174 770.247C822.398 780.003 806.109 791.364 788.032 792.947C785.349 793.182 783.909 791.442 782.343 789.714C775.196 781.832 776.52 770.792 783.405 763.225C785.208 761.242 787.92 758.291 787.499 755.455C780.246 747.598 765.418 771.252 774.193 788.608C771.78 788.437 770.15 788.149 767.802 788.746L767.571 789.309C769.9 790.626 772.803 790.629 775.473 790.697L778.982 794.543C766.02 794.142 754.213 790.134 747.587 778.946C740.367 766.756 748.676 752.2 760.974 748.271C762.74 747.707 763.672 744.624 761.657 742.835C751.535 740.081 740.092 755.349 739.03 764.391C738.264 770.909 739.012 773.402 740.891 779.326C720.998 771.895 710.2 755.584 725.787 735.71C729.024 731.584 735.514 728.714 740.179 726.012C740.757 724.17 740.221 723.148 738.978 721.79C731.437 718.309 716.822 733.815 715.492 740.901C715.223 742.337 713.764 746.395 713.188 747.515C713.268 743.59 713.063 741.269 714.91 737.72C716.306 734.025 721.37 728.513 721.867 726.345L718.522 727.634C713.423 723.5 724.903 713.811 727.705 710.732C727.548 709.33 727.665 709.328 726.789 708.264C724.17 709.38 723.655 711.132 720.446 712.355C725.209 707.037 727.997 703.528 731.734 697.461C732.724 701.655 729.964 701.894 728.323 705.726C729.11 706.89 729.754 707.068 731.02 707.867C733.463 708.155 736.512 706.964 736.192 704.174C735.68 699.708 733.147 700.485 734.756 695.794L734.933 695.293L736.262 696.357C736.621 697.361 737.463 700.465 738.777 700.11C743.243 698.903 747.698 692.769 750.856 689.524Z"/><path fill="#E7E5E2" d="M819.241 697.674C829.508 697.261 842.553 695.671 852.69 693.998L852.922 695.758C851.501 697.179 848.445 697.016 846.516 697.035C847.054 697.62 847.475 697.483 848.584 697.72C838.813 698.62 829.006 699.079 819.194 699.097L819.241 697.674Z"/><path fill="#E7E5E2" d="M603.666 742.691C624.949 739.61 657.051 750.082 668.264 769.807C674.598 780.815 676.205 793.919 672.718 806.131C662.079 843.95 623.347 874.04 590.298 892.351C588.033 887.912 585.616 886.283 583.52 882.545L584.227 882.189C584.967 882.957 585.696 883.735 586.413 884.525C587.732 881.782 587.354 881.706 585.952 879.499C588.476 866.567 584.346 860.683 572.147 856.446C576.636 842.409 571.547 826.304 554.622 827.352C554.845 808.81 542.833 805.189 528.724 803.733C528.629 803.723 527.42 800.905 527.367 800.648C526.505 796.438 523.246 794.248 520.231 791.928L520.196 791.347C520.802 790.872 521.402 790.39 521.996 789.899C523.584 788.564 523.827 788.382 523.953 786.668L522.967 785.61C521.158 785.788 517.49 789.212 516.211 790.561L515.395 790.29L514.685 790.099L514.894 789.44C522.425 784.106 530.538 776.634 537.954 771.454C552.606 761.221 586.475 744.549 603.666 742.691Z"/><path fill="#E7E5E2" d="M638.632 625.681C637.043 606.203 660.72 617.631 670.664 621.795C686.534 628.442 709.319 638.822 720.214 652.199C718.402 652.577 718.42 652.481 716.99 653.798C716.066 657.872 721.9 659.032 724.12 663.052L723.408 663.129C719.538 660.49 714.512 656.961 709.685 657.091C707.481 658.197 706.774 659.567 708.097 661.799C713.253 664.938 716.405 664.369 721.693 668.947C736.894 682.108 731.046 695.336 719.936 707.774C721.956 692.061 714.287 683.248 701.619 675.256C699.141 673.693 694.208 670.678 692.08 674.078C691.244 675.365 691.515 675.581 691.852 676.859C694.555 679.856 697.887 680.019 700.568 681.822C707.773 686.669 715.176 694.021 714.703 703.246C714.379 708.538 711.95 713.48 707.959 716.969C703.082 721.281 696.731 723.325 690.569 724.995C694.277 709.238 689.56 697.132 672.675 691.912C670.991 691.391 669.394 691.777 667.883 692.602C666.771 694.196 667.005 693.358 666.931 695.127C668.579 697.943 673.582 698.636 676.482 700.191C687.201 705.937 688.228 715.858 685.127 726.493C668.584 729.461 647.18 727.106 631.139 722.319C626.413 720.909 620.599 717.808 615.997 716.744C606.874 714.636 597.49 713.841 588.412 711.128C586.333 705.662 585.897 702.593 587.982 696.895C590.396 690.298 598.062 689.96 595.399 683.369C594.362 680.803 595.391 678.037 596.667 675.567C597.318 676.465 597.156 678.073 597.201 679.346L597.701 679.607C599.708 678.066 601.221 676.39 599.94 673.816L597.865 673.53C600.906 670.428 602.687 669.662 606.497 667.816L606.482 667.201C606.207 658.344 609.555 655.254 617.164 651.637C616.707 642.583 619.998 640.36 627.671 637.06C629.988 629.828 632.043 628.905 638.632 625.681Z"/><path fill="#EA5E18" d="M695.555 208.59C697.857 208.376 700.513 208.481 702.851 208.501C706.673 210.56 708.694 213.056 710.382 217.083C720.871 242.096 725.304 269.782 728.533 296.578C728.811 298.879 729.066 301.189 728.304 303.399C726.657 303.844 722.144 303.187 720.334 302.848C705.766 300.125 691.758 298.283 676.98 297.53C666.904 297.252 656.926 297.665 646.922 298.828C644.298 299.134 641.701 299.391 639.056 299.279L638.452 298.28C638.388 296.105 638.867 294.902 639.585 292.896C646.47 273.654 677.852 216.924 695.555 208.59ZM643.015 295.718L654.683 294.24C654.726 289.446 656.845 291.033 652.428 287.372C652.481 283.708 652.781 283.87 654.336 280.724C655.858 277.645 658.018 273.518 653.668 271.854C652.925 273.298 649.852 279.057 649.73 280.338C647.576 285.858 644.857 289.809 643.015 295.718ZM719.13 298.752C721.278 299.147 722.504 299.727 724.374 299.109C725.187 297.636 724.526 295.31 724.253 293.514C722.317 292.526 722.171 292.421 720.472 291.054C719.94 293.685 719.425 296.072 719.13 298.752ZM696.363 212.094C692.788 214.265 691.384 215.862 688.735 219.119C689.016 219.667 689.301 220.211 689.59 220.754C695.158 220.048 694.676 215.772 696.363 212.094Z"/><path fill="#E7E5E2" d="M696.363 212.094C698.674 211.88 701.609 211.292 703.483 213.029C712.291 221.191 724.059 280.035 724.273 293.296C724.275 293.369 724.26 293.441 724.253 293.514C722.317 292.526 722.171 292.421 720.472 291.054C719.94 293.685 719.425 296.072 719.13 298.752C704.816 296.643 691.782 294.628 677.251 294.044C670.314 293.765 660.891 294.847 654.683 294.24C654.726 289.446 656.845 291.033 652.428 287.372C652.481 283.708 652.781 283.87 654.336 280.724C655.858 277.645 658.018 273.518 653.668 271.854C661.575 255.983 676.657 231.95 688.735 219.119C689.016 219.667 689.301 220.211 689.59 220.754C695.158 220.048 694.676 215.772 696.363 212.094Z"/><path fill="#E7E5E2" fill-opacity="0.85490197" d="M653.668 271.854C658.018 273.518 655.858 277.645 654.336 280.724C652.781 283.87 652.481 283.708 652.428 287.372C650.951 284.494 650.402 283.606 649.73 280.338C649.852 279.057 652.925 273.298 653.668 271.854Z"/><path fill="#E7E5E2" fill-opacity="0.91764706" d="M688.735 219.119C691.384 215.862 692.788 214.265 696.363 212.094C694.676 215.772 695.158 220.048 689.59 220.754C689.301 220.211 689.016 219.667 688.735 219.119Z"/><defs><linearGradient id="gradient_2" gradientUnits="userSpaceOnUse" x1="959.68671" y1="366.7532" x2="941.06976" y2="453.02277"><stop offset="0" stop-color="#E6E5E3" stop-opacity="0.80784315"/><stop offset="1" stop-color="#E6E5E3" stop-opacity="0.94117647"/></linearGradient></defs><path fill="url(#gradient_2)" d="M919.922 393.259C924.759 388.892 975.936 368.718 983.105 368.313C989.475 371.082 988.273 382.517 986.688 388.041L985.805 387.982C982.701 392.945 980.222 397.378 984.194 402.997L982.88 410.044C980.568 412.338 977.145 411.171 977.074 414.027C976.971 418.214 980.107 423.21 977.057 427.135C976.307 428.056 974.689 427.82 973.15 429.475C973.199 431.219 974.727 435.675 976.244 436.623C973.939 444.912 971.464 454.266 968.285 462.264C965.226 459.779 964.585 459.558 961.283 461.512C960.062 460.326 954.579 451.058 953.525 449.131C944.161 432.009 931.1 419.207 919.146 404.25C919.894 399.617 922.032 398.055 919.922 393.259Z"/><path fill="#EA5E18" d="M507.297 406.017C508.408 405.967 509.521 405.957 510.632 405.986C536.739 406.796 575.439 426.323 593.055 445.916C603.03 457.046 611.166 470.002 617.172 483.676C619.545 489.08 623.436 493.162 618.132 498.061C612.919 497.542 612.113 493.014 610.066 488.624C602.833 473.106 594.155 457.64 581.08 446.268C568.698 435.423 554.433 426.942 538.991 421.245C529.38 417.756 520.098 415.815 510.043 414.256C504.57 413.408 502.488 410.16 507.297 406.017Z"/><path fill="#EA5E18" d="M818.98 596.705C851.7 593.89 891.149 603.961 915.784 625.845C919.595 629.231 928.011 637.028 928.892 642.636C929.013 643.404 928.308 645.175 927.522 645.503C923.814 647.18 922.087 646.128 920.004 643.27L919.632 642.748C900.691 617.072 864.022 605.518 833.197 604.414C827.313 604.203 812.667 606.046 809.787 605.576C808.361 604.395 808.377 604.488 807.544 602.705C807.345 596.286 814.184 597.023 818.98 596.705Z"/><path fill="#E7E5E2" fill-opacity="0.81176472" d="M716.913 514.101C719.114 514.784 720.007 515.049 722.047 516.055C720.972 518 720.165 518.525 720.541 520.136C722.412 521.261 726.898 519.971 729.639 519.709C736.637 523.054 747.757 530.268 750.684 537.585C753.744 545.235 742.794 548.007 737.246 546.38C726.621 543.263 721.668 548.341 715.134 555.854C715.108 557.321 714.759 561.944 714.23 563.35L713.836 562.363C711.816 562.525 711.426 562.364 710.287 560.861C710.288 556.353 716.109 552.778 718.159 549.98C717.473 547.041 716.023 544.621 714.008 542.4L713.076 543.562C712.679 530.58 705.289 530.16 702.114 519.842C703.797 519.938 704.108 520.061 705.751 519.608L707.073 518.112C711.034 513.56 715.015 517.493 716.913 514.101Z"/><path fill="#EA5E18" d="M508.803 467.684C539.872 465.481 572.56 470.76 596.04 492.956C599.739 496.453 608.961 503.673 600.47 507.777C599.297 508.344 598.033 507.378 597.129 506.844C575.194 482.228 549.11 474.804 516.739 475.974C511.665 476.158 502.278 479.485 499.843 474.13C499.885 469.48 505.073 467.976 508.803 467.684Z"/><path fill="#EA5E18" d="M806.968 613.304C814.707 613.581 830.121 619.896 837.341 623.472C854.771 632.163 869.733 645.101 880.848 661.094C883.722 665.205 886.146 668.601 887.756 673.345C886.615 674.62 885.303 675.922 884.107 677.159C883.657 677.407 881.971 678.131 881.74 677.959C878.391 675.112 875.651 669.481 873.28 665.859C858.507 643.289 834.639 627.411 808.202 622.259C806.286 621.885 805.162 621.046 804.217 619.317C804.122 616.526 805.197 615.357 806.968 613.304Z"/><path fill="#E7E5E2" fill-opacity="0.086274512" d="M827.687 568.298L827.198 566.853C828.333 564.794 832.645 560.402 835.111 560.166C837.404 561.632 837.478 565.369 839.669 566.914C844.45 570.286 844.899 564.819 849.985 564.049L850.105 564.945C853.075 565.61 870.001 565.534 872.119 563.59L871.674 562.789L868.661 561.989C871.758 561.312 875.315 560.841 878.682 560.114L879.294 560.791C878.358 562.637 877.983 562.522 878.431 563.963C880.644 564.953 882.663 566.27 884.716 567.55L884.72 568.001C881.074 567.839 873.854 566.666 872.701 571.415C873.127 572.796 873.344 573.383 873.931 574.702C861.046 576.911 850.926 575.91 838.353 573.114C840.865 572.375 839.952 572.895 841.732 570.876C843.129 570.759 843.787 570.671 845.16 570.396C844.339 569.381 841.441 569.811 839.625 569.263C836.678 568.373 836.311 565.896 834.805 563.226C833.709 563.028 832.902 563.158 831.918 564.128L827.687 568.298Z"/><path fill="#E7E5E2" fill-opacity="0.3137255" d="M680.655 469.632L688.839 471.28C687.97 472.324 688.198 471.889 687.768 473.19C691.766 475.5 707.426 473.245 714.037 474.489C711.776 474.867 704.54 475.831 703.042 476.92C706.612 478.253 711.124 478.178 713.287 480.846L713.735 481.39C713.939 481.62 714.144 481.85 714.348 482.079C712.899 482.201 713.563 481.984 712.309 482.828C713.144 483.213 713.015 483.273 713.875 483.343C703.79 485.298 685.464 485.587 675.968 482.037L676.978 481.806C675.459 481.059 674.529 480.88 674.078 479.285C675.206 475.614 677.497 471.902 680.655 469.632Z"/><path fill="#E7E5E2" fill-opacity="0.29411766" d="M688.839 471.28C699.663 472.791 711.789 470.462 722.035 466.993C723.742 467.671 729.196 470.477 730.431 471.629C731.906 476.447 724.427 473.817 722.825 480.177L723.405 480.805C720.82 481.94 716.727 482.815 713.875 483.343C713.015 483.273 713.144 483.213 712.309 482.828C713.563 481.984 712.899 482.201 714.348 482.079C714.144 481.85 713.939 481.62 713.735 481.39L713.287 480.846C711.124 478.178 706.612 478.253 703.042 476.92C704.54 475.831 711.776 474.867 714.037 474.489C707.426 473.245 691.766 475.5 687.768 473.19C688.198 471.889 687.97 472.324 688.839 471.28Z"/><path fill="#E7E5E2" fill-opacity="0.011764706" d="M783.299 522.421C780.698 516.68 773.632 501.41 781.892 497.589C783.438 496.871 785.209 496.815 786.797 497.435C787.872 497.858 789.043 498.753 789.457 499.802C792.262 506.909 793.313 512.995 796.361 520.323C794.186 518.925 787.411 517.951 785.247 518.45L786.038 518.076L785.381 518.019C784.57 519.595 783.954 520.779 783.299 522.421Z"/><path fill="#E7E5E2" fill-opacity="0.32156864" d="M786.197 528.977C787.095 527.625 791.209 519.256 794.159 521.185C798.605 524.09 793.917 526.959 800.304 527.794L802.095 530.577C796.565 540.176 821.193 545.747 816.193 557.335C815.915 557.98 816.061 558.934 816.178 559.618C814.964 560.463 814.569 560.385 813.102 560.609L811.163 559.068C811.874 558.814 812.574 558.641 813.316 558.502C816.953 550.577 803.354 541.816 797.472 538.181C796.434 538.836 795.645 541.066 794.373 542.449C793.113 540.79 791.848 538.767 790.687 537.008C791.641 534.866 791.755 534.493 790.565 532.611C789.197 532.034 789.155 531.956 787.705 531.781L786.197 528.977Z"/><path fill="#E7E5E2" fill-opacity="0.015686275" d="M820.799 550.121C831.777 557.369 840.339 560.792 853.502 562.234L853.613 563.341C852.443 564.105 851.409 563.982 849.985 564.049C844.899 564.819 844.45 570.286 839.669 566.914C837.478 565.369 837.404 561.632 835.111 560.166C832.645 560.402 828.333 564.794 827.198 566.853L827.687 568.298L827.812 569.164C825.525 568.293 823.259 566.986 821.084 565.827C823.305 564.721 822.956 565.286 824.102 563.46C824.236 561.643 822.734 559.257 821.784 557.578C820.371 555.083 820.73 553.079 820.799 550.121Z"/><path fill="#E7E5E2" fill-opacity="0.50588238" d="M794.373 542.449C795.645 541.066 796.434 538.836 797.472 538.181C803.354 541.816 816.953 550.577 813.316 558.502C812.574 558.641 811.874 558.814 811.163 559.068C806.2 556.45 797.736 547.066 794.373 542.449Z"/><path fill="#E7E5E2" fill-opacity="0.26666668" d="M813.102 560.609C814.569 560.385 814.964 560.463 816.178 559.618C816.061 558.934 815.915 557.98 816.193 557.335C821.193 545.747 796.565 540.176 802.095 530.577C806.194 536.202 809.402 540.109 814.618 544.82C816.416 546.443 819.261 548.577 820.799 550.121C820.73 553.079 820.371 555.083 821.784 557.578C822.734 559.257 824.236 561.643 824.102 563.46C822.956 565.286 823.305 564.721 821.084 565.827C818.294 564.373 815.686 562.421 813.102 560.609Z"/><path fill="#E7E5E2" fill-opacity="0.45490196" d="M713.076 543.562L714.008 542.4C716.023 544.621 717.473 547.041 718.159 549.98C716.109 552.778 710.288 556.353 710.287 560.861C711.426 562.364 711.816 562.525 713.836 562.363L714.23 563.35L713.891 570.14C713.691 567.237 713.618 564.328 709.762 564.846C707.662 566.425 708.348 565.64 707.306 568.116C707.27 566.309 707.565 564.528 706.676 563.282C704.863 563.504 703.681 564.076 701.992 564.733C703.188 563.663 703.683 563.902 704.569 562.36C704.987 560.516 703.814 558.581 703.022 556.748C708.856 553.048 711.53 550.164 713.076 543.562Z"/><path fill="#E7E5E2" fill-opacity="0.26274511" d="M878.682 560.114L879.826 559.33C881.26 560.477 883.326 563.226 885.282 564.512C887.009 565.647 887.716 568.43 887.994 570.518L887.754 571.19C883.398 572.479 878.377 574.077 873.931 574.702C873.344 573.383 873.127 572.796 872.701 571.415C873.854 566.666 881.074 567.839 884.72 568.001L884.716 567.55C882.663 566.27 880.644 564.953 878.431 563.963C877.983 562.522 878.358 562.637 879.294 560.791L878.682 560.114Z"/><path fill="#E7E5E2" fill-opacity="0.39215687" d="M879.826 559.33C881.625 559.445 885.073 557.908 886.939 557.211C894.816 559.159 891.994 566.144 894.958 568.389C892.426 569.498 890.438 570.426 887.754 571.19L887.994 570.518C887.716 568.43 887.009 565.647 885.282 564.512C883.326 563.226 881.26 560.477 879.826 559.33Z"/><path fill="#E7E5E2" fill-opacity="0.27450982" d="M886.939 557.211C888.599 556.565 890.251 555.898 891.896 555.212L898.58 557.115C899.81 562.669 899.14 561.839 898.204 566.8C896.814 567.613 896.521 567.791 894.958 568.389C891.994 566.144 894.816 559.159 886.939 557.211Z"/><path fill="#E7E5E2" fill-opacity="0.12941177" d="M827.687 568.298L831.918 564.128C832.902 563.158 833.709 563.028 834.805 563.226C836.311 565.896 836.678 568.373 839.625 569.263C841.441 569.811 844.339 569.381 845.16 570.396C843.787 570.671 843.129 570.759 841.732 570.876C839.952 572.895 840.865 572.375 838.353 573.114C834.976 572.004 830.885 570.812 827.812 569.164L827.687 568.298Z"/><path fill="#E7E5E2" fill-opacity="0.14117648" d="M783.299 522.421C783.954 520.779 784.57 519.595 785.381 518.019L786.038 518.076L785.247 518.45C787.411 517.951 794.186 518.925 796.361 520.323L800.304 527.794C793.917 526.959 798.605 524.09 794.159 521.185C791.209 519.256 787.095 527.625 786.197 528.977C784.99 526.524 784.297 524.964 783.299 522.421Z"/><path fill="#E7E5E2" fill-opacity="0.94509804" d="M973.15 429.475C974.689 427.82 976.307 428.056 977.057 427.135C980.107 423.21 976.971 418.214 977.074 414.027C977.145 411.171 980.568 412.338 982.88 410.044C981.444 416.372 980.078 422.781 978.299 429.016C974.819 428.399 976.291 430.244 973.15 429.475Z"/><path fill="#E7E5E2" fill-opacity="0.098039217" d="M853.502 562.234C859.086 562.487 863.073 562.331 868.661 561.989L871.674 562.789L872.119 563.59C870.001 565.534 853.075 565.61 850.105 564.945L849.985 564.049C851.409 563.982 852.443 564.105 853.613 563.341L853.502 562.234Z"/><path fill="#E7E5E2" fill-opacity="0.54901963" d="M702.114 519.842C704.473 511.082 709.514 511.421 716.913 514.101C715.015 517.493 711.034 513.56 707.073 518.112L705.751 519.608C704.108 520.061 703.797 519.938 702.114 519.842Z"/><path fill="#E7E5E2" fill-opacity="0.3764706" d="M724.12 663.052C721.9 659.032 716.066 657.872 716.99 653.798C718.42 652.481 718.402 652.577 720.214 652.199C723.078 655.53 725.151 658.463 727.455 662.228C726.02 663.196 725.915 663.757 724.12 663.052Z"/><path fill="#E7E5E2" d="M921.491 666.621L921.7 666.84C920.198 669.953 909.277 678.459 906.233 680.492C906.581 678.516 906.526 677.317 907.954 675.957C910.158 675.306 910.953 675.356 912.124 673.559L911.321 672.643C914.696 670.611 918.087 668.604 921.491 666.621Z"/><path fill="#E7E5E2" fill-opacity="0.95294118" d="M984.194 402.997C980.222 397.378 982.701 392.945 985.805 387.982L986.688 388.041C986.079 392.865 985.293 398.256 984.194 402.997Z"/><path fill="#E7E5E2" fill-opacity="0.0078431377" d="M511.275 688.597C514.973 688.283 522.281 690.003 525.094 692.53C522.239 693.326 513.096 691.102 511.275 688.597Z"/><path fill="#FDFBFA" d="M620.169 603.29C626.249 605.343 634.497 607.888 640.257 610.282C632.877 608.98 625.853 606.803 618.7 604.605L620.169 603.29Z"/><path fill="#E7E5E2" fill-opacity="0.67843139" d="M722.047 516.055C724.459 517.147 727.409 518.365 729.639 519.709C726.898 519.971 722.412 521.261 720.541 520.136C720.165 518.525 720.972 518 722.047 516.055Z"/><path fill="#E7E5E2" fill-opacity="0.97254902" d="M973.15 429.475C976.291 430.244 974.819 428.399 978.299 429.016C977.698 431.422 977.067 434.324 976.244 436.623C974.727 435.675 973.199 431.219 973.15 429.475Z"/><path fill="#FDFBFA" d="M727.455 662.228C729.546 665.599 730.185 667.578 731.318 671.41C728.621 668.171 726.761 665.724 723.408 663.129L724.12 663.052C725.915 663.757 726.02 663.196 727.455 662.228Z"/><path fill="#E7E5E2" fill-opacity="0.90196079" d="M597.865 673.53L599.94 673.816C601.221 676.39 599.708 678.066 597.701 679.607L597.201 679.346C597.156 678.073 597.318 676.465 596.667 675.567L597.865 673.53Z"/><path fill="#E7E5E2" fill-opacity="0.015686275" d="M618.7 604.605C616.653 604.14 613.991 603.827 612.775 602.126L613.417 601.586C616.005 601.39 617.711 602.338 620.169 603.29L618.7 604.605Z"/><path fill="#FDFBFA" d="M543.762 581.65C548.461 582.011 551.55 582.862 555.975 584.285L556.016 585.749C552.731 585.111 547.121 582.896 543.762 581.65Z"/><path fill="#E7E5E2" fill-opacity="0.24313726" d="M787.705 531.781C789.155 531.956 789.197 532.034 790.565 532.611C791.755 534.493 791.641 534.866 790.687 537.008C789.245 535.01 788.808 534.029 787.705 531.781Z"/><path fill="#030203" d="M918.757 219.166C924.062 219.84 970.341 229.955 972.476 231.931C973.01 232.424 972.875 233.182 972.939 233.862C971.568 238.051 943.297 259.55 938.095 263.606C929.458 270.34 918.303 279.957 909.478 286.319C913.083 287.61 920.831 288.937 925.055 289.842C933.179 291.635 941.288 293.502 949.379 295.441C952.772 296.246 959.055 296.692 959.761 300.298C959.152 302.22 959.172 302.111 957.551 303.365C942.616 299.244 916.592 295.176 901.167 290.156C900.129 289.818 900.257 288.358 900.202 287.36C902.582 282.946 956.349 241.675 964.105 235.402C957.662 233.567 919.271 226.282 916.652 223.213C916.257 222.751 916.226 221.979 916.404 221.415C916.841 220.03 917.578 219.766 918.757 219.166Z"/><path fill="#030203" d="M850.644 213.367C860.729 215.279 870.803 217.248 880.866 219.273C886.047 220.267 892.254 221.235 897.296 222.687C898.48 223.029 898.171 223.097 898.744 224.433C898.667 225.788 898.449 226.821 897.426 227.785C881.375 242.912 862.33 256.088 845.999 270.824C857.791 274.108 876.211 275.681 888.182 279.745C889.412 280.163 889.461 281.056 889.668 282.033C889.033 283.746 888.819 283.724 887.401 284.834C880.455 283.662 842.531 276.451 838.027 274.295C836.991 272.975 837.335 273.728 837.204 271.865C838.648 267.659 883.991 232.196 890.36 226.634C879.755 225.215 861.35 221.421 850.348 218.754C849.357 218.514 849.097 217.341 848.816 216.477C849.08 214.843 849.523 214.578 850.644 213.367Z"/><path fill="#030203" d="M790.971 220.02C799.812 221.145 808.72 222.934 817.595 223.976C820.252 224.288 822.974 224.601 825.488 225.523C826.275 226.483 826.731 226.892 826.653 228.229C826.419 232.234 796.477 257.204 791.652 262.526L791.198 263.032C797.069 264.366 819.929 266.363 822.656 270.822C822.548 273.266 822.211 273.227 820.119 273.72C815.773 273.504 783.841 268.35 782.334 266.052C782.992 261.623 788.425 257.31 791.717 254.422C800.856 246.404 809.426 237.644 818.665 229.766C811.279 228.805 803.693 227.886 796.33 226.717C793.45 226.259 790.253 225.779 789.102 222.922C789.705 220.712 789.163 221.681 790.971 220.02Z"/><path fill="#FDFBFA" fill-opacity="0.8509804" d="M720.446 712.355C723.655 711.132 724.17 709.38 726.789 708.264C727.665 709.328 727.548 709.33 727.705 710.732C724.903 713.811 713.423 723.5 718.522 727.634L721.867 726.345C721.37 728.513 716.306 734.025 714.91 737.72C714.492 734.515 714.142 733.683 712.701 730.866C711.379 728.28 713.765 725.409 714.122 722.542C713.381 720.404 713.656 721.094 711.798 719.415C714.511 717.106 717.602 714.431 720.446 712.355Z"/></svg>